<?xml version="1.0" encoding="utf-8"?>
<!-- Generator: Adobe Illustrator 24.0.2, SVG Export Plug-In . SVG Version: 6.00 Build 0)  -->
<svg version="1.1" id="Layer_1" xmlns="http://www.w3.org/2000/svg" xmlns:xlink="http://www.w3.org/1999/xlink" x="0px" y="0px"
	 viewBox="0 0 554 639" style="enable-background:new 0 0 554 639;" xml:space="preserve">
<style type="text/css">
	.st0{fill:#FFFFFF;}
</style>
<title>pause</title>
<g>
	<path class="st0" d="M81.2,60h102.3c11.2,0,20.3,9.1,20.3,20.3v477.7c0,11.2-9.1,20.3-20.3,20.3H81.2c-11.2,0-20.3-9.1-20.3-20.3
		V80.3C60.9,69.1,70,60,81.2,60z"/>
	<path class="st0" d="M371.3,60h102.3c11.2,0,20.3,9.1,20.3,20.3v477.7c0,11.2-9.1,20.3-20.3,20.3H371.3c-11.2,0-20.3-9.1-20.3-20.3
		V80.3C351,69.1,360.1,60,371.3,60z"/>
</g>
</svg>
