<svg xmlns="http://www.w3.org/2000/svg" viewBox="0 0 28.79 25.57"><title>tomato</title><path d="M15.93,29C24,29,29,23.83,29,17.81S26.5,7.39,20.1,6.19a7.45,7.45,0,0,0-2.16,0,10.49,10.49,0,0,0-3.7-.52c-5.32,0-11.3,4.15-11.3,10.82C2.94,24.36,8.64,29,15.93,29Z" transform="translate(-2.24 -3.43)" style="fill:#f01d00"/><path d="M2.24,10.62c4.81-3.58,10.57-.51,12.13,0,1,.32,1.2.36,1.58.24,1.11-.1,1.57,1,3,3.3a31.26,31.26,0,0,0-1.18-3.55c1.07-.73,10.05-2.46,13.22.25-1.72-2-5-2.51-12.23-1.63,1.44-1.9,5.85-5.44,7.08-5.58a1.88,1.88,0,0,1,1.32.18c0-.1-.42-.44-1.25-.34-2.47.28-8,5.06-8.65,5.15a4.63,4.63,0,0,1,.08-1.8,3,3,0,0,0,.16-.91c0-.56-.48-.79-1.11-.71s-.81.25-.76.73a5.17,5.17,0,0,1-.27,1.7c-1.69-1.26-3-4.32-5.38-4.05A1.5,1.5,0,0,0,8.55,5.49,1.39,1.39,0,0,1,9.77,3.82C11.59,3.61,12.38,6.67,13.9,9c-.89-.7-2.58-1.09-3.83-1.85S8.46,5.86,6.93,6.29C8.74,6,8.65,6.74,9.67,7.44a14.4,14.4,0,0,1,2.93,2C9.83,8.36,4.32,7.92,2.24,10.62Z" transform="translate(-2.24 -3.43)" style="fill:#5cac00"/><path d="M2.24,10.62A8,8,0,0,1,9.05,9a35.63,35.63,0,0,1,5.29,1.32c1.18.42,1.85.21,2.3.65a1.5,1.5,0,0,0-.55-.13,2.39,2.39,0,0,1-1.46-.1A26.49,26.49,0,0,0,7.15,9.09C5.16,9.09,4.36,9.46,2.24,10.62Z" transform="translate(-2.24 -3.43)" style="fill:#335e00"/><path d="M17.81,10.57s-.09-.31-.16-.53c7.13-1.6,11-1,13.38.78C29.65,9.12,23.57,8.78,17.81,10.57Z" transform="translate(-2.24 -3.43)" style="fill:#335e00"/><path d="M14.84,9.48a17,17,0,0,0,.81-2.9,3.29,3.29,0,0,0,0-.67,1.18,1.18,0,0,0,1,.6c.39,0,.79.07.85-.41a14.13,14.13,0,0,0-.15,3.58C16.64,9.39,15.75,10,14.84,9.48Z" transform="translate(-2.24 -3.43)" style="fill:#335e00"/></svg>